PathFileType   4   (X/Y/Z)
DataRate	CameraRate	NumFrames	NumMarkers	Units	OrigDataRate	OrigDataStartFrame	OrigNumFrames
120.0	120.0	5	37	mm	120.0	43	114
Frame#	Time	midhip	hip_r	hip_l	knee_r	knee_l	ankle_r	ankle_l	midasis	asis_r	asis_l	psis_r	psis_l	epicondLat_r	epicondLat_l	epicondMed_r	epicondMed_l	malleolusLat_r	malleolusLat_l	malleolusMedv_r	malleolusMedv_l	neck	subclavicle_r	subclavicle_l	sternalnotch	xyphoidprocess	thighwand_r	thighwand_l	upperleg1_r	upperleg1_l	upperleg2_r	upperleg2_l	shankwand_r	shankwand_l	lowerleg1_r	lowerleg1_l	toe_r	toe_l
 	 	X1	Y1	Z1	X2	Y2	Z2	X3	Y3	Z3	X4	Y4	Z4	X5	Y5	Z5	X6	Y6	Z6	X7	Y7	Z7	X8	Y8	Z8	X9	Y9	Z9	X10	Y10	Z10	X11	Y11	Z11	X12	Y12	Z12	X13	Y13	Z13	X14	Y14	Z14	X15	Y15	Z15	X16	Y16	Z16	X17	Y17	Z17	X18	Y18	Z18	X19	Y19	Z19	X20	Y20	Z20	X21	Y21	Z21	X22	Y22	Z22	X23	Y23	Z23	X24	Y24	Z24	X25	Y25	Z25	X26	Y26	Z26	X27	Y27	Z27	X28	Y28	Z28	X29	Y29	Z29	X30	Y30	Z30	X31	Y31	Z31	X32	Y32	Z32	X33	Y33	Z33	X34	Y34	Z34	X35	Y35	Z35	X36	Y36	Z36	X37	Y37	Z37

	43	0.46667	417.336	749.752	-270.862	403.621	752.659	-190.529	394.398	754.429	-345.875	608.350	415.670	-203.981	294.986	416.379	-326.962	738.857	80.095	-191.964	151.796	78.214	-308.287	528.038	823.098	-275.070	535.485	821.668	-149.645	520.591	824.527	-400.495	290.860	896.904	-223.816	283.955	899.895	-278.236	616.621	417.862	-132.994	289.034	414.145	-398.179	595.056	388.217	-280.735	290.260	415.882	-237.693	727.145	76.848	-155.432	136.014	82.913	-344.190	756.298	93.516	-225.341	152.767	96.096	-267.165	323.477	1321.292	-285.079	452.646	1254.303	-240.532	455.437	1256.297	-324.131	437.515	1250.592	-295.122	490.391	1176.908	-293.963	665.271	609.886	-142.209	518.662	535.305	-353.511	617.776	603.983	-157.821	476.700	563.986	-358.941	638.441	530.396	-168.002	436.963	500.694	-349.620	758.357	250.684	-163.442	171.497	179.279	-417.383	724.150	239.012	-181.318	176.524	191.483	-370.224	837.249	104.321	-183.817	243.662	46.418	-323.521
	44	0.47500	430.139	748.676	-269.729	416.408	751.539	-189.399	407.195	753.364	-344.744	620.390	414.868	-204.448	304.593	415.996	-327.327	755.677	80.365	-192.098	153.751	81.002	-309.227	540.796	822.072	-273.904	548.231	820.599	-148.523	533.360	823.545	-399.284	303.702	895.736	-222.367	296.630	898.732	-276.753	628.897	416.850	-133.483	298.116	414.291	-398.512	605.378	388.940	-283.623	300.624	415.314	-239.525	744.136	77.048	-155.519	138.065	86.126	-345.116	771.810	94.368	-226.008	155.505	98.365	-268.130	334.998	1319.763	-284.352	464.224	1254.145	-239.728	467.684	1254.987	-323.226	449.366	1249.178	-294.309	502.823	1176.222	-291.716	677.205	608.139	-142.643	529.473	533.165	-354.725	629.320	602.403	-157.270	488.295	562.005	-359.886	650.163	529.491	-169.197	448.256	499.684	-351.083	772.866	251.538	-164.055	175.750	181.942	-418.146	737.839	239.602	-181.728	181.169	193.529	-370.822	853.883	105.863	-184.175	244.461	46.656	-323.828
	45	0.48333	443.073	747.778	-268.520	429.327	750.624	-188.215	420.171	752.416	-343.564	632.487	414.032	-204.702	314.776	415.585	-327.776	770.477	80.033	-192.496	156.036	84.040	-310.293	553.685	821.252	-272.684	561.072	819.806	-147.351	546.298	822.698	-398.018	316.650	894.687	-221.078	309.467	897.682	-275.421	641.264	415.855	-133.767	307.775	414.441	-398.923	617.066	389.736	-286.099	311.672	413.637	-241.582	759.063	76.655	-155.883	140.453	89.610	-346.159	787.145	94.179	-226.332	159.035	100.320	-269.278	345.970	1318.624	-283.434	475.898	1252.774	-239.008	479.260	1253.600	-322.257	461.220	1247.992	-293.437	514.477	1174.860	-290.895	689.416	606.896	-142.889	540.649	531.268	-356.000	641.064	601.759	-157.272	500.021	559.839	-360.642	662.082	528.970	-170.220	459.913	498.469	-352.596	786.420	251.483	-164.617	180.397	184.786	-418.989	751.559	239.364	-182.656	186.624	195.661	-371.199	868.581	106.204	-184.717	245.417	46.926	-324.170
	46	0.49167	456.155	747.039	-267.249	442.390	749.909	-186.986	433.332	751.571	-342.342	644.598	413.150	-204.746	325.579	415.114	-328.321	783.329	79.105	-193.091	158.689	87.335	-311.454	566.721	820.615	-271.429	574.026	819.274	-146.129	559.415	821.955	-396.729	329.707	893.766	-219.953	322.485	896.750	-274.246	653.683	414.866	-133.846	318.076	414.554	-399.424	630.226	389.976	-286.698	324.174	410.728	-242.332	772.013	75.684	-156.450	143.222	93.365	-347.296	799.507	92.991	-227.115	161.351	104.051	-270.376	357.329	1317.493	-282.174	487.716	1251.268	-238.063	490.574	1252.816	-321.527	473.127	1247.037	-292.522	526.041	1173.838	-290.958	701.938	606.110	-142.953	552.215	529.647	-357.278	653.556	602.099	-157.852	510.932	557.910	-361.668	674.389	529.113	-170.419	471.713	497.175	-353.794	799.090	250.551	-165.124	185.497	187.804	-419.903	763.970	237.858	-183.004	191.422	198.688	-372.361	881.452	105.257	-185.452	246.553	47.222	-324.537
	47	0.50000	469.412	746.448	-265.939	455.605	749.385	-185.725	446.691	750.820	-341.092	656.680	412.226	-204.577	337.042	414.551	-328.976	794.360	77.647	-193.797	161.756	90.895	-312.677	579.919	820.143	-270.150	587.107	818.986	-144.862	572.731	821.300	-395.437	342.872	892.978	-218.985	335.694	895.941	-273.225	666.104	413.884	-133.720	329.083	414.586	-400.031	642.470	390.587	-286.951	338.839	405.837	-240.796	783.137	74.210	-157.130	146.422	97.396	-348.493	810.718	90.909	-227.774	163.908	108.268	-271.531	369.240	1316.376	-281.137	499.380	1250.796	-236.663	502.342	1252.491	-320.835	485.092	1246.306	-291.543	538.067	1173.597	-289.987	714.794	605.700	-142.824	564.210	528.336	-358.508	666.388	602.658	-158.061	520.131	556.711	-362.733	686.781	529.429	-170.425	483.150	496.067	-354.351	810.961	248.845	-165.573	191.109	190.995	-420.876	775.412	235.569	-183.773	196.591	201.906	-373.735	892.660	103.004	-186.361	247.889	47.531	-324.919
